<svg width="36" height="36" viewBox="0 0 36 36" fill="none" xmlns="http://www.w3.org/2000/svg">
<g clip-path="url(#clip0_2621_15604)">
<path d="M18 2.16602C13.8007 2.16602 9.77343 3.83417 6.8041 6.80349C3.83478 9.77282 2.16663 13.8001 2.16663 17.9993C2.16663 22.1986 3.83478 26.2259 6.8041 29.1952C9.77343 32.1645 13.8007 33.8327 18 33.8327C22.1992 33.8327 26.2265 32.1645 29.1958 29.1952C32.1651 26.2259 33.8333 22.1986 33.8333 17.9993C33.8333 13.8001 32.1651 9.77282 29.1958 6.80349C26.2265 3.83417 22.1992 2.16602 18 2.16602Z" fill="#039BE5"/>
<path d="M20.1433 22.1971H24.2408L24.8841 18.0346H20.1424V15.7596C20.1424 14.0305 20.7074 12.4971 22.3249 12.4971H24.9241V8.86464C24.4674 8.80297 23.5016 8.66797 21.6766 8.66797C17.8658 8.66797 15.6316 10.6805 15.6316 15.2655V18.0346H11.7141V22.1971H15.6316V33.638C16.4074 33.7546 17.1933 33.8338 17.9999 33.8338C18.7291 33.8338 19.4408 33.7671 20.1433 33.6721V22.1971Z" fill="white"/>
</g>
<defs>
<clipPath id="clip0_2621_15604">
<rect width="36" height="36" fill="white"/>
</clipPath>
</defs>
</svg>
