<svg width="173" height="90" viewBox="0 0 173 90" fill="none" xmlns="http://www.w3.org/2000/svg">
<g clip-path="url(#clip0_2672_3405)">
<g clip-path="url(#clip1_2672_3405)">
<path d="M24.6749 19.4061C20.1629 17.3198 14.5329 19.8959 12.0992 25.1594C10.0155 29.666 10.9513 34.683 14.0956 37.3399L2.54896 58.7596C2.36197 59.0977 2.24716 59.4709 2.2118 59.8556C2.17643 60.2404 2.22127 60.6283 2.34349 60.9948C2.4657 61.3613 2.66263 61.6985 2.92183 61.985C3.18103 62.2715 3.49685 62.5012 3.84933 62.6594L5.21084 63.2889C6.7085 63.9814 8.42292 63.2901 9.02428 61.7536L17.8642 39.0824C21.9263 39.7542 26.3535 37.2203 28.4372 32.7137C30.871 27.4502 29.1869 21.4923 24.6749 19.4061ZM47.7742 30.0866L39.2107 42.6528L37.5088 41.8659L42.6685 27.7259L41.5331 27.2009L34.1023 40.2909L32.4004 39.504L36.4274 24.8401L35.2919 24.3151L27.1081 42.0146C26.9411 42.3757 26.9244 42.7884 27.0617 43.1618C27.199 43.5351 27.479 43.8387 27.8401 44.0057L31.3854 45.645L19.9735 66.8163C19.7865 67.1544 19.6717 67.5276 19.6363 67.9123C19.601 68.2971 19.6458 68.6849 19.768 69.0515C19.8902 69.418 20.0872 69.7552 20.3464 70.0417C20.6056 70.3282 20.9214 70.5578 21.2739 70.7161L22.6354 71.3456C24.133 72.0381 25.8475 71.3468 26.4488 69.8103L35.1867 47.4026L38.7321 49.0419C39.0932 49.2088 39.5058 49.2255 39.8792 49.0883C40.2526 48.951 40.5562 48.671 40.7231 48.3099L48.907 30.6104L47.7715 30.0854L47.7742 30.0866Z" fill="white"/>
</g>
<path d="M69.8522 37.268C70.6735 38.0333 71.3828 38.528 71.9802 38.752C71.9242 38.976 71.8028 39.2747 71.6162 39.648C71.4482 40.0213 71.2242 40.3947 70.9442 40.768C70.6828 41.1413 70.3748 41.4587 70.0202 41.72C69.6655 41.9813 69.2735 42.1213 68.8442 42.14C68.3215 42.1587 67.8455 42.1027 67.4162 41.972C67.0055 41.8227 66.5668 41.58 66.1002 41.244C65.7455 40.964 65.3255 40.6093 64.8402 40.18C64.3735 39.732 63.9162 39.2747 63.4682 38.808C63.0202 38.3413 62.6655 37.9493 62.4042 37.632C62.0308 37.1467 61.6295 36.736 61.2002 36.4C60.7708 36.064 60.2948 35.9333 59.7722 36.008C59.4735 36.0267 59.2868 36.1107 59.2122 36.26C59.1562 36.3907 59.1002 36.6613 59.0442 37.072C59.0068 37.352 58.9975 37.688 59.0162 38.08C59.0348 38.4533 59.0628 38.808 59.1002 39.144C59.1562 39.48 59.1842 39.7227 59.1842 39.872C59.1842 40.208 59.2495 40.4693 59.3802 40.656C59.5108 40.824 59.6415 40.9827 59.7722 41.132C59.4548 41.3747 58.9602 41.636 58.2882 41.916C57.6162 42.196 56.8695 42.336 56.0482 42.336C55.5068 42.336 55.0775 42.1213 54.7602 41.692C54.4615 41.2627 54.2468 40.74 54.1162 40.124C53.9855 39.508 53.9108 38.9107 53.8922 38.332C53.8922 38.164 53.8828 37.7067 53.8642 36.96C53.8642 36.2133 53.8548 35.2893 53.8362 34.188C53.8362 33.068 53.8362 31.8733 53.8362 30.604C53.8362 29.316 53.8268 28.0467 53.8082 26.796C53.8082 25.5267 53.7988 24.3787 53.7802 23.352C53.7802 22.3067 53.7802 21.476 53.7802 20.86C53.7802 20.2253 53.7802 19.908 53.7802 19.908C53.9855 19.8707 54.3402 19.8613 54.8442 19.88C55.3668 19.8987 55.9082 19.9827 56.4682 20.132C57.1028 20.2813 57.6815 20.5333 58.2042 20.888C58.7455 21.2427 59.0535 21.756 59.1282 22.428C59.1655 22.8573 59.1842 23.212 59.1842 23.492C59.2028 23.772 59.2122 24.0613 59.2122 24.36C59.2122 25.3493 59.4548 25.9747 59.9402 26.236C60.4815 26.516 61.2188 26.3293 62.1522 25.676C62.3015 25.564 62.5628 25.3493 62.9362 25.032C63.3095 24.696 63.7388 24.304 64.2242 23.856C64.7095 23.408 65.2135 22.9413 65.7362 22.456C66.2588 21.9707 66.7348 21.5227 67.1642 21.112C67.6122 20.6827 67.9762 20.3373 68.2562 20.076C68.5362 19.8147 68.6762 19.684 68.6762 19.684C68.8442 19.8147 69.0775 20.1227 69.3762 20.608C69.6935 21.0933 69.9735 21.6347 70.2162 22.232C70.4588 22.8293 70.6082 23.4453 70.6642 24.08C70.7388 24.696 70.6175 25.2093 70.3002 25.62C70.1695 25.788 69.9548 26.012 69.6562 26.292C69.3762 26.572 69.0588 26.8707 68.7042 27.188C68.3682 27.4867 68.0415 27.776 67.7242 28.056C67.4068 28.3173 67.1642 28.5227 66.9962 28.672C66.6415 28.9707 66.3428 29.344 66.1002 29.792C65.8762 30.2213 65.7362 30.6693 65.6802 31.136C65.6242 31.6027 65.6428 32.0693 65.7362 32.536C65.8295 33.0027 66.0348 33.432 66.3522 33.824C66.5762 34.0853 66.9122 34.44 67.3602 34.888C67.8082 35.3173 68.2655 35.756 68.7322 36.204C69.1988 36.6333 69.5722 36.988 69.8522 37.268ZM77.3693 25.34C76.7346 25.3587 76.1653 25.1813 75.6613 24.808C75.1759 24.4347 74.8026 23.9773 74.5413 23.436C74.2986 22.876 74.2053 22.344 74.2613 21.84C74.3546 21.0747 74.6999 20.5333 75.2973 20.216C75.8946 19.8987 76.5199 19.7307 77.1733 19.712C78.1066 19.6747 78.8346 19.9173 79.3573 20.44C79.8799 20.9627 80.1413 21.56 80.1413 22.232C80.1413 22.68 80.0386 23.1373 79.8333 23.604C79.6466 24.0707 79.3479 24.472 78.9373 24.808C78.5266 25.1253 78.0039 25.3027 77.3693 25.34ZM80.3373 39.172C80.3559 39.508 80.4586 39.7973 80.6453 40.04C80.8506 40.264 81.0933 40.4787 81.3733 40.684C81.2426 40.852 81.0746 41.0293 80.8693 41.216C80.6639 41.4027 80.3559 41.58 79.9453 41.748C79.5533 41.8973 78.9839 42.0187 78.2373 42.112C77.9946 42.1307 77.6866 42.1027 77.3133 42.028C76.9399 41.972 76.5666 41.7947 76.1933 41.496C75.8386 41.1787 75.5493 40.684 75.3253 40.012C75.1013 39.3213 75.0079 38.3787 75.0453 37.184C75.0639 36.9787 75.0639 36.5773 75.0453 35.98C75.0453 35.3827 75.0359 34.6733 75.0173 33.852C75.0173 33.0307 75.0079 32.1813 74.9893 31.304C74.9893 30.4267 74.9799 29.6147 74.9613 28.868C74.9613 28.1027 74.9519 27.4867 74.9333 27.02C74.9333 26.5347 74.9333 26.292 74.9333 26.292C75.1013 26.2733 75.3813 26.2547 75.7733 26.236C76.1839 26.1987 76.6319 26.1987 77.1173 26.236C77.6026 26.2733 78.0693 26.3667 78.5173 26.516C78.9839 26.6467 79.3759 26.8613 79.6933 27.16C80.0293 27.4587 80.2253 27.86 80.2813 28.364C80.3746 29.0733 80.4119 30.0253 80.3933 31.22C80.3746 32.396 80.3466 33.684 80.3093 35.084C80.2719 36.4653 80.2813 37.828 80.3373 39.172ZM95.5122 26.46C95.6989 26.6467 95.8389 26.992 95.9322 27.496C96.0442 27.9813 96.0722 28.5227 96.0162 29.12C95.9789 29.6987 95.8389 30.2307 95.5962 30.716C95.3722 31.1827 95.0269 31.5 94.5602 31.668C93.8322 31.9293 93.3002 32.396 92.9642 33.068C92.6282 33.74 92.4322 34.5893 92.3762 35.616V37.996C92.4135 38.2947 92.5349 38.5373 92.7402 38.724C92.9642 38.9107 93.1789 39.0413 93.3842 39.116C93.6082 39.1907 93.7202 39.228 93.7202 39.228C93.7202 39.228 93.6829 39.3587 93.6082 39.62C93.5522 39.8813 93.4402 40.1893 93.2722 40.544C93.1042 40.8987 92.8615 41.244 92.5442 41.58C92.2269 41.8973 91.8162 42.1213 91.3122 42.252C91.0509 42.308 90.6962 42.3173 90.2482 42.28C89.8189 42.2613 89.3802 42.1773 88.9322 42.028C88.4842 41.8787 88.1109 41.6733 87.8122 41.412C87.6442 41.2627 87.5042 41.104 87.3922 40.936C87.2802 40.768 87.1962 40.516 87.1402 40.18C87.1029 39.844 87.0842 39.368 87.0842 38.752V35.756C87.0655 34.6733 86.8322 33.7773 86.3842 33.068C85.9362 32.34 85.3482 31.7147 84.6202 31.192C84.2842 30.9493 84.0415 30.5573 83.8922 30.016C83.7615 29.456 83.6775 28.868 83.6402 28.252C83.6029 27.636 83.5935 27.1133 83.6122 26.684C83.7055 26.7027 83.9575 26.74 84.3682 26.796C84.7789 26.852 85.1335 26.88 85.4322 26.88C86.0295 26.8613 86.4402 26.628 86.6642 26.18C86.8882 25.732 87.0002 25.172 87.0002 24.5L86.9722 22.008C87.1402 21.9893 87.4202 21.9707 87.8122 21.952C88.2229 21.9147 88.6709 21.9147 89.1562 21.952C89.6415 21.9893 90.1082 22.0827 90.5562 22.232C91.0229 22.3627 91.4149 22.5773 91.7322 22.876C92.0682 23.1747 92.2642 23.576 92.3202 24.08C92.3202 24.136 92.3202 24.2107 92.3202 24.304C92.3389 24.3787 92.3482 24.472 92.3482 24.584H92.3762C92.3762 24.8267 92.4042 25.116 92.4602 25.452C92.5349 25.788 92.6375 26.068 92.7682 26.292C92.8989 26.4787 93.1042 26.6187 93.3842 26.712C93.6642 26.7867 93.9349 26.8333 94.1962 26.852C94.4762 26.852 94.6815 26.8333 94.8122 26.796C95.0175 26.74 95.1669 26.6933 95.2602 26.656C95.3535 26.6 95.4375 26.5347 95.5122 26.46ZM111.428 29.904C111.353 30.296 111.185 30.66 110.924 30.996C110.662 31.332 110.354 31.612 110 31.836C109.664 32.0413 109.337 32.1533 109.02 32.172C108.702 32.1907 108.441 32.0787 108.236 31.836C108.59 31.5933 108.674 31.36 108.488 31.136C108.32 30.912 108.03 30.7347 107.62 30.604C107.209 30.4733 106.808 30.436 106.416 30.492C105.445 30.6413 104.726 31.0613 104.26 31.752C103.793 32.424 103.494 33.1987 103.364 34.076C103.27 34.8227 103.345 35.4947 103.588 36.092C103.849 36.6707 104.204 37.1373 104.652 37.492C105.118 37.828 105.622 38.0053 106.164 38.024C107.377 38.0427 108.385 37.8653 109.188 37.492C109.99 37.1187 110.616 36.6893 111.064 36.204C111.53 35.7 111.848 35.2893 112.016 34.972C112.464 35.2893 112.725 35.7467 112.8 36.344C112.874 36.9413 112.781 37.5853 112.52 38.276C112.258 38.9667 111.848 39.6293 111.288 40.264C110.728 40.8987 110.046 41.4213 109.244 41.832C108.441 42.224 107.526 42.42 106.5 42.42C105.958 42.42 105.314 42.3547 104.568 42.224C103.821 42.0933 103.056 41.8507 102.272 41.496C101.506 41.1413 100.797 40.628 100.144 39.956C99.5091 39.284 99.0144 38.416 98.6598 37.352C98.3238 36.288 98.2211 34.9813 98.3518 33.432C98.4451 32.2373 98.7624 31.1827 99.3038 30.268C99.8638 29.3347 100.545 28.5507 101.348 27.916C102.15 27.2627 102.99 26.768 103.868 26.432C104.764 26.0773 105.613 25.8907 106.416 25.872C107.218 25.8533 107.946 25.9747 108.6 26.236C109.253 26.4973 109.804 26.8427 110.252 27.272C110.7 27.6827 111.026 28.1213 111.232 28.588C111.437 29.0547 111.502 29.4933 111.428 29.904ZM129.659 38.444C129.677 38.78 129.733 39.1347 129.827 39.508C129.939 39.8627 130.2 40.124 130.611 40.292C130.368 40.6093 129.939 40.964 129.323 41.356C128.707 41.7293 128.044 41.972 127.335 42.084C126.681 42.1773 126.131 42.1027 125.683 41.86C125.253 41.5987 124.927 41.2253 124.703 40.74C124.497 40.2547 124.385 39.732 124.367 39.172C124.367 39.0227 124.376 38.7147 124.395 38.248C124.413 37.7627 124.423 37.212 124.423 36.596C124.423 35.98 124.413 35.392 124.395 34.832C124.395 34.272 124.367 33.8333 124.311 33.516C124.199 32.9 123.975 32.5547 123.639 32.48C123.321 32.3867 122.957 32.4613 122.547 32.704C121.893 33.0773 121.352 33.74 120.923 34.692C120.512 35.6253 120.297 36.82 120.279 38.276C120.26 38.8547 120.335 39.2747 120.503 39.536C120.671 39.7787 120.755 39.9 120.755 39.9C120.755 39.9 120.661 40.0587 120.475 40.376C120.288 40.6933 119.952 41.0387 119.467 41.412C118.981 41.7667 118.272 42.0187 117.339 42.168C116.816 42.2427 116.387 42.1493 116.051 41.888C115.715 41.608 115.472 41.216 115.323 40.712C115.173 40.208 115.089 39.676 115.071 39.116L114.987 22.848C114.968 22.0827 114.884 21.4107 114.735 20.832C114.585 20.2347 114.511 19.936 114.511 19.936C114.977 19.88 115.519 19.8613 116.135 19.88C116.769 19.8987 117.385 19.992 117.983 20.16C118.599 20.3093 119.121 20.5707 119.551 20.944C119.98 21.3173 120.232 21.8213 120.307 22.456C120.325 22.5867 120.344 22.8387 120.363 23.212C120.4 23.5667 120.419 23.9307 120.419 24.304C120.4 24.8267 120.475 25.2653 120.643 25.62C120.811 25.9747 121.035 26.2453 121.315 26.432C121.632 26.6187 122.033 26.684 122.519 26.628C123.004 26.5533 123.433 26.4507 123.807 26.32C124.18 26.1707 124.488 26.0587 124.731 25.984C124.992 25.9093 125.263 25.8533 125.543 25.816C125.86 25.7787 126.233 25.7973 126.663 25.872C127.092 25.928 127.512 26.068 127.923 26.292C128.352 26.516 128.716 26.8333 129.015 27.244C129.332 27.6547 129.528 28.1773 129.603 28.812C129.733 29.8947 129.761 31.22 129.687 32.788C129.631 34.3373 129.621 36.2227 129.659 38.444ZM146.97 34.972C147.437 35.2893 147.736 35.7467 147.866 36.344C148.016 36.9227 147.997 37.5573 147.81 38.248C147.642 38.9387 147.297 39.6013 146.774 40.236C146.252 40.852 145.542 41.3653 144.646 41.776C143.769 42.1867 142.705 42.4013 141.454 42.42C140.409 42.4387 139.382 42.308 138.374 42.028C137.385 41.748 136.48 41.3187 135.658 40.74C134.856 40.1613 134.202 39.4147 133.698 38.5C133.194 37.5853 132.914 36.4933 132.858 35.224C132.84 34.9627 132.84 34.692 132.858 34.412C132.877 34.132 132.896 33.8427 132.914 33.544C132.914 33.4693 132.914 33.3947 132.914 33.32C132.933 33.2453 132.952 33.1707 132.97 33.096C133.157 31.976 133.54 30.9493 134.118 30.016C134.716 29.0827 135.444 28.2893 136.302 27.636C137.161 26.9827 138.076 26.5067 139.046 26.208C140.036 25.8907 141.006 25.7787 141.958 25.872C143.433 26.0213 144.572 26.4133 145.374 27.048C146.196 27.6827 146.728 28.4667 146.97 29.4C147.232 30.3147 147.241 31.304 146.998 32.368C146.868 32.8907 146.569 33.4133 146.102 33.936C145.654 34.44 145.094 34.8973 144.422 35.308C143.75 35.7 143.032 36.008 142.266 36.232C141.52 36.4373 140.792 36.5213 140.082 36.484C139.728 36.4653 139.541 36.5773 139.522 36.82C139.504 37.044 139.606 37.296 139.83 37.576C140.054 37.8373 140.353 38.0147 140.726 38.108C141.604 38.2947 142.425 38.304 143.19 38.136C143.974 37.9493 144.572 37.6973 144.982 37.38C145.318 37.1187 145.673 36.7733 146.046 36.344C146.42 35.896 146.728 35.4387 146.97 34.972ZM140.838 32.144C141.268 32.1067 141.641 31.976 141.958 31.752C142.294 31.5093 142.462 31.2573 142.462 30.996C142.481 30.6227 142.388 30.324 142.182 30.1C141.996 29.8573 141.669 29.7453 141.202 29.764C140.68 29.7827 140.176 29.8573 139.69 29.988C139.205 30.1187 138.916 30.3893 138.822 30.8C138.766 31.08 138.85 31.3227 139.074 31.528C139.298 31.7333 139.578 31.892 139.914 32.004C140.25 32.0973 140.558 32.144 140.838 32.144ZM165.482 38.444C165.5 39.2653 165.622 39.844 165.846 40.18C166.088 40.4973 166.21 40.656 166.21 40.656C166.21 40.656 166.042 40.7773 165.706 41.02C165.388 41.244 164.959 41.4773 164.418 41.72C163.876 41.9627 163.27 42.084 162.598 42.084C161.608 42.084 160.964 41.8133 160.666 41.272C160.367 40.7307 160.208 40.0307 160.19 39.172C160.19 39.0227 160.199 38.696 160.218 38.192C160.236 37.688 160.246 37.1187 160.246 36.484C160.264 35.8307 160.264 35.2333 160.246 34.692C160.227 34.132 160.19 33.74 160.134 33.516C159.928 32.7693 159.527 32.4427 158.93 32.536C158.463 32.592 158.024 32.8627 157.614 33.348C157.203 33.8147 156.867 34.3747 156.606 35.028C156.344 35.6813 156.214 36.2973 156.214 36.876C156.214 37.1747 156.195 37.4733 156.158 37.772C156.139 38.052 156.12 38.3133 156.102 38.556C156.083 38.724 156.102 38.9293 156.158 39.172C156.232 39.4147 156.363 39.6107 156.55 39.76C156.419 39.984 156.158 40.2733 155.766 40.628C155.392 40.9827 154.982 41.3093 154.534 41.608C154.104 41.888 153.731 42.0467 153.414 42.084C153.115 42.1027 152.76 42.0093 152.35 41.804C151.958 41.5987 151.612 41.2907 151.314 40.88C151.034 40.4693 150.884 39.9747 150.866 39.396C150.866 39.2467 150.866 38.9013 150.866 38.36C150.884 37.8187 150.894 37.1653 150.894 36.4C150.912 35.6347 150.922 34.8227 150.922 33.964C150.94 33.1053 150.95 32.2747 150.95 31.472C150.95 30.6693 150.95 29.9787 150.95 29.4C150.95 28.896 150.884 28.4107 150.754 27.944C150.642 27.4587 150.52 27.0667 150.39 26.768C150.278 26.4507 150.222 26.292 150.222 26.292C150.39 26.2547 150.679 26.2267 151.09 26.208C151.519 26.1893 151.995 26.1987 152.518 26.236C153.04 26.2733 153.554 26.3573 154.058 26.488C154.58 26.6187 155.019 26.824 155.374 27.104C155.747 27.384 156.12 27.5613 156.494 27.636C156.886 27.692 157.194 27.6547 157.418 27.524C158.071 27.0947 158.734 26.7213 159.406 26.404C160.078 26.0867 160.731 25.8907 161.366 25.816C161.683 25.7787 162.056 25.7973 162.486 25.872C162.915 25.928 163.335 26.068 163.746 26.292C164.175 26.516 164.539 26.8333 164.838 27.244C165.155 27.6547 165.351 28.1773 165.426 28.812C165.556 29.8947 165.594 31.22 165.538 32.788C165.482 34.3373 165.463 36.2227 165.482 38.444ZM88.9821 49.46C89.2061 49.6467 89.3647 50.0107 89.4581 50.552C89.5701 51.0933 89.6167 51.6813 89.5981 52.316C89.5794 52.932 89.4861 53.492 89.3181 53.996C89.1501 54.4813 88.9074 54.7707 88.5901 54.864C88.4594 54.9013 88.1887 54.9573 87.7781 55.032C87.3861 55.088 87.0221 55.1627 86.6861 55.256C86.3687 55.3493 85.9487 55.508 85.4261 55.732C84.9034 55.956 84.4554 56.2827 84.0821 56.712C83.7834 57.0667 83.5407 57.44 83.3541 57.832C83.1674 58.2053 83.0647 58.6907 83.0461 59.288C83.0274 59.5307 83.0181 59.988 83.0181 60.66C83.0181 61.3133 83.0181 62.0787 83.0181 62.956C83.0181 63.8147 83.0181 64.664 83.0181 65.504C83.0367 66.344 83.0461 67.0627 83.0461 67.66C83.0461 68.2573 83.0461 68.612 83.0461 68.724C83.0274 69.284 83.0834 69.76 83.2141 70.152C83.3447 70.544 83.4847 70.7773 83.6341 70.852C83.1674 71.2067 82.7007 71.5053 82.2341 71.748C81.7861 71.9907 81.1421 72.168 80.3021 72.28C79.9847 72.3173 79.6301 72.224 79.2381 72C78.8461 71.7947 78.5007 71.468 78.2021 71.02C77.9221 70.5533 77.7727 69.984 77.7541 69.312C77.7541 68.64 77.7447 67.7813 77.7261 66.736C77.7261 65.672 77.7261 64.524 77.7261 63.292C77.7447 62.0413 77.7447 60.7907 77.7261 59.54C77.7074 58.9987 77.6234 58.4853 77.4741 58C77.3434 57.5147 77.1194 57.0947 76.8021 56.74C76.4847 56.3667 76.0647 56.0587 75.5421 55.816C75.0194 55.5733 74.3661 55.4147 73.5821 55.34C73.3767 55.3213 73.0967 55.2653 72.7421 55.172C72.3874 55.0787 72.1447 54.9853 72.0141 54.892C71.8087 54.7427 71.6407 54.4627 71.5101 54.052C71.3794 53.6227 71.2767 53.156 71.2021 52.652C71.1274 52.1293 71.0714 51.616 71.0341 51.112C71.0154 50.608 71.0154 50.1973 71.0341 49.88C71.1087 49.8987 71.3141 49.9267 71.6501 49.964C72.0047 50.0013 72.4247 50.0387 72.9101 50.076C73.3954 50.0947 73.8714 50.1133 74.3381 50.132C74.6741 50.1507 75.1221 50.1693 75.6821 50.188C76.2607 50.2067 76.8767 50.2253 77.5301 50.244C78.1834 50.2627 78.7994 50.2813 79.3781 50.3C79.9567 50.3 80.4327 50.3 80.8061 50.3C81.3101 50.2813 81.8981 50.2627 82.5701 50.244C83.2421 50.2253 83.8861 50.2067 84.5021 50.188C85.1367 50.1507 85.6407 50.1133 86.0141 50.076C86.3874 50.0387 86.7794 49.992 87.1901 49.936C87.6194 49.8613 87.9927 49.7867 88.3101 49.712C88.6461 49.6187 88.8701 49.5347 88.9821 49.46ZM103.935 66.932C103.954 67.3427 103.982 67.8467 104.019 68.444C104.075 69.0413 104.197 69.62 104.383 70.18C104.57 70.74 104.869 71.188 105.279 71.524C104.813 71.8413 104.337 72.0653 103.851 72.196C103.366 72.3453 102.89 72.3827 102.423 72.308C102.293 72.2707 102.153 72.224 102.003 72.168C101.854 72.1307 101.649 72.0747 101.387 72C100.958 71.8693 100.454 71.8413 99.8754 71.916C99.2967 71.9907 98.69 72.084 98.0554 72.196C97.4394 72.3267 96.8327 72.392 96.2354 72.392C95.2647 72.392 94.294 72.224 93.3234 71.888C92.3527 71.5333 91.4754 70.992 90.6914 70.264C89.9074 69.536 89.31 68.612 88.8994 67.492C88.4887 66.372 88.3674 65.028 88.5354 63.46C88.6474 62.3773 88.9554 61.388 89.4594 60.492C89.9634 59.5773 90.5794 58.7933 91.3074 58.14C92.054 57.468 92.838 56.9547 93.6594 56.6C94.4994 56.2267 95.3114 56.0493 96.0954 56.068C96.6927 56.0867 97.15 56.1053 97.4674 56.124C97.8034 56.1427 98.2327 56.1893 98.7554 56.264C99.0727 56.3013 99.474 56.2547 99.9594 56.124C100.445 55.9933 100.93 55.8533 101.415 55.704C101.919 55.536 102.349 55.452 102.703 55.452C103.245 55.4333 103.627 55.452 103.851 55.508C104.075 55.5453 104.262 55.5827 104.411 55.62C104.299 55.956 104.206 56.46 104.131 57.132C104.057 57.804 104.001 58.5693 103.963 59.428C103.945 60.268 103.926 61.1453 103.907 62.06C103.889 62.9747 103.879 63.852 103.879 64.692C103.898 65.532 103.917 66.2787 103.935 66.932ZM93.4074 64.356C93.4447 65.2893 93.6127 66.0173 93.9114 66.54C94.2287 67.044 94.602 67.3987 95.0314 67.604C95.4794 67.8093 95.9087 67.912 96.3194 67.912C97.1407 67.9307 97.7474 67.6133 98.1394 66.96C98.5314 66.3067 98.718 65.4013 98.6994 64.244C98.6994 63.9267 98.662 63.5533 98.5874 63.124C98.5314 62.6947 98.4194 62.2747 98.2514 61.864C98.102 61.4533 97.8874 61.108 97.6074 60.828C97.346 60.548 97.0007 60.408 96.5714 60.408C95.7127 60.408 94.9567 60.7253 94.3034 61.36C93.6687 61.9947 93.37 62.9933 93.4074 64.356ZM107.987 69.704C107.987 69.5547 107.987 69.1533 107.987 68.5C107.987 67.828 107.987 66.9973 107.987 66.008C107.987 65.0187 107.977 63.936 107.959 62.76C107.959 61.5653 107.959 60.3613 107.959 59.148C107.959 57.9347 107.949 56.7867 107.931 55.704C107.931 54.6027 107.921 53.6507 107.903 52.848C107.884 52.0827 107.819 51.448 107.707 50.944C107.595 50.4213 107.529 50.104 107.511 49.992C107.735 49.9547 108.071 49.9453 108.519 49.964C108.967 49.964 109.461 50.02 110.003 50.132C110.563 50.2253 111.095 50.384 111.599 50.608C112.103 50.8133 112.523 51.112 112.859 51.504C113.195 51.8773 113.372 52.3533 113.391 52.932C113.409 53.2867 113.419 53.912 113.419 54.808C113.437 55.6853 113.447 56.7213 113.447 57.916C113.465 59.092 113.484 60.3053 113.503 61.556C113.521 62.788 113.531 63.9547 113.531 65.056C113.549 66.1573 113.559 67.0813 113.559 67.828C113.577 68.556 113.587 68.9853 113.587 69.116C113.587 69.508 113.689 69.8907 113.895 70.264C114.119 70.6187 114.352 70.8427 114.595 70.936C114.483 71.0853 114.231 71.2813 113.839 71.524C113.447 71.7667 112.989 71.9907 112.467 72.196C111.963 72.4013 111.449 72.532 110.927 72.588C110.497 72.6253 110.049 72.5227 109.583 72.28C109.135 72.056 108.752 71.72 108.435 71.272C108.136 70.824 107.987 70.3013 107.987 69.704ZM130.947 64.972C131.414 65.2893 131.712 65.7467 131.843 66.344C131.992 66.9227 131.974 67.5573 131.787 68.248C131.619 68.9387 131.274 69.6013 130.751 70.236C130.228 70.852 129.519 71.3653 128.623 71.776C127.746 72.1867 126.682 72.4013 125.431 72.42C124.386 72.4387 123.359 72.308 122.351 72.028C121.362 71.748 120.456 71.3187 119.635 70.74C118.832 70.1613 118.179 69.4147 117.675 68.5C117.171 67.5853 116.891 66.4933 116.835 65.224C116.816 64.9627 116.816 64.692 116.835 64.412C116.854 64.132 116.872 63.8427 116.891 63.544C116.891 63.4693 116.891 63.3947 116.891 63.32C116.91 63.2453 116.928 63.1707 116.947 63.096C117.134 61.976 117.516 60.9493 118.095 60.016C118.692 59.0827 119.42 58.2893 120.279 57.636C121.138 56.9827 122.052 56.5067 123.023 56.208C124.012 55.8907 124.983 55.7787 125.935 55.872C127.41 56.0213 128.548 56.4133 129.351 57.048C130.172 57.6827 130.704 58.4667 130.947 59.4C131.208 60.3147 131.218 61.304 130.975 62.368C130.844 62.8907 130.546 63.4133 130.079 63.936C129.631 64.44 129.071 64.8973 128.399 65.308C127.727 65.7 127.008 66.008 126.243 66.232C125.496 66.4373 124.768 66.5213 124.059 66.484C123.704 66.4653 123.518 66.5773 123.499 66.82C123.48 67.044 123.583 67.296 123.807 67.576C124.031 67.8373 124.33 68.0147 124.703 68.108C125.58 68.2947 126.402 68.304 127.167 68.136C127.951 67.9493 128.548 67.6973 128.959 67.38C129.295 67.1187 129.65 66.7733 130.023 66.344C130.396 65.896 130.704 65.4387 130.947 64.972ZM124.815 62.144C125.244 62.1067 125.618 61.976 125.935 61.752C126.271 61.5093 126.439 61.2573 126.439 60.996C126.458 60.6227 126.364 60.324 126.159 60.1C125.972 59.8573 125.646 59.7453 125.179 59.764C124.656 59.7827 124.152 59.8573 123.667 59.988C123.182 60.1187 122.892 60.3893 122.799 60.8C122.743 61.08 122.827 61.3227 123.051 61.528C123.275 61.7333 123.555 61.892 123.891 62.004C124.227 62.0973 124.535 62.144 124.815 62.144ZM141.506 55.732C142.887 55.732 144.063 55.928 145.034 56.32C146.023 56.712 146.779 57.1973 147.302 57.776C147.825 58.3547 148.077 58.924 148.058 59.484C148.058 59.7827 147.927 60.1187 147.666 60.492C147.405 60.8653 147.059 61.1827 146.63 61.444C146.219 61.6867 145.762 61.78 145.258 61.724C145.389 61.388 145.305 61.0707 145.006 60.772C144.707 60.4733 144.278 60.2307 143.718 60.044C143.158 59.8387 142.551 59.7267 141.898 59.708C141.151 59.6707 140.647 59.7547 140.386 59.96C140.125 60.1467 139.975 60.352 139.938 60.576C139.882 60.8187 139.994 61.0333 140.274 61.22C140.554 61.388 140.918 61.5467 141.366 61.696C141.833 61.8267 142.318 61.948 142.822 62.06C143.345 62.1533 143.821 62.2373 144.25 62.312C144.698 62.3867 145.043 62.4613 145.286 62.536C146.406 62.872 147.227 63.3107 147.75 63.852C148.273 64.3747 148.609 64.9347 148.758 65.532C148.926 66.1293 148.991 66.7173 148.954 67.296C148.917 68.2293 148.674 69.0133 148.226 69.648C147.797 70.264 147.255 70.7587 146.602 71.132C145.967 71.5053 145.295 71.7853 144.586 71.972C143.895 72.14 143.242 72.252 142.626 72.308C142.029 72.364 141.571 72.392 141.254 72.392C140.283 72.3733 139.369 72.2707 138.51 72.084C137.67 71.916 136.942 71.692 136.326 71.412C135.729 71.132 135.299 70.8333 135.038 70.516C134.851 70.292 134.674 69.9747 134.506 69.564C134.338 69.1533 134.235 68.7147 134.198 68.248C134.179 67.7627 134.282 67.3053 134.506 66.876C134.73 66.428 135.141 66.064 135.738 65.784C135.85 66.1573 136.149 66.4933 136.634 66.792C137.138 67.0907 137.735 67.3333 138.426 67.52C139.135 67.7067 139.835 67.8373 140.526 67.912C141.198 67.968 141.833 67.9587 142.43 67.884C143.027 67.8093 143.354 67.5947 143.41 67.24C143.447 67.0533 143.354 66.8667 143.13 66.68C142.906 66.4933 142.495 66.3347 141.898 66.204C141.263 66.0547 140.703 65.9427 140.218 65.868C139.751 65.7747 139.285 65.672 138.818 65.56C137.941 65.336 137.175 64.9813 136.522 64.496C135.869 64.0107 135.374 63.432 135.038 62.76C134.721 62.0693 134.609 61.3413 134.702 60.576C134.851 59.4747 135.253 58.5693 135.906 57.86C136.578 57.1507 137.409 56.6187 138.398 56.264C139.387 55.9093 140.423 55.732 141.506 55.732Z" fill="white"/>
</g>
<defs>
<clipPath id="clip0_2672_3405">
<rect width="173" height="90" fill="white"/>
</clipPath>
<clipPath id="clip1_2672_3405">
<rect width="39.36" height="48" fill="white" transform="translate(15.1445 15) rotate(24.8147)"/>
</clipPath>
</defs>
</svg>
