<svg width="30" height="30" viewBox="0 0 30 30" fill="none" xmlns="http://www.w3.org/2000/svg">
<rect x="2" y="2" width="26" height="26" rx="9" fill="white"/>
<path d="M9.22222 2C5.23411 2 2 5.23411 2 9.22222V20.7778C2 24.7659 5.23411 28 9.22222 28H20.7778C24.7659 28 28 24.7659 28 20.7778V9.22222C28 5.23411 24.7659 2 20.7778 2H9.22222ZM23.6667 4.88889C24.464 4.88889 25.1111 5.536 25.1111 6.33333C25.1111 7.13067 24.464 7.77778 23.6667 7.77778C22.8693 7.77778 22.2222 7.13067 22.2222 6.33333C22.2222 5.536 22.8693 4.88889 23.6667 4.88889ZM15 7.77778C18.9881 7.77778 22.2222 11.0119 22.2222 15C22.2222 18.9881 18.9881 22.2222 15 22.2222C11.0119 22.2222 7.77778 18.9881 7.77778 15C7.77778 11.0119 11.0119 7.77778 15 7.77778ZM15 10.6667C13.8507 10.6667 12.7485 11.1232 11.9359 11.9359C11.1232 12.7485 10.6667 13.8507 10.6667 15C10.6667 16.1493 11.1232 17.2515 11.9359 18.0641C12.7485 18.8768 13.8507 19.3333 15 19.3333C16.1493 19.3333 17.2515 18.8768 18.0641 18.0641C18.8768 17.2515 19.3333 16.1493 19.3333 15C19.3333 13.8507 18.8768 12.7485 18.0641 11.9359C17.2515 11.1232 16.1493 10.6667 15 10.6667Z" fill="url(#paint0_linear_2673_4785)"/>
<defs>
<linearGradient id="paint0_linear_2673_4785" x1="28" y1="-3.77778" x2="5.61111" y2="32.3333" gradientUnits="userSpaceOnUse">
<stop stop-color="#2F46F4"/>
<stop offset="0.11" stop-color="#4831E3"/>
<stop offset="0.205" stop-color="#802CC2"/>
<stop offset="0.305" stop-color="#C72785"/>
<stop offset="0.42" stop-color="#E52765"/>
<stop offset="0.53" stop-color="#ED253A"/>
<stop offset="0.645" stop-color="#EF4738"/>
<stop offset="0.755" stop-color="#F26931"/>
<stop offset="0.875" stop-color="#F8B147"/>
<stop offset="1" stop-color="#FBE186"/>
</linearGradient>
</defs>
</svg>
